<svg width="172" height="36" viewBox="0 0 172 36" fill="none" xmlns="http://www.w3.org/2000/svg">
<g clip-path="url(#clip0)">
<path fill-rule="evenodd" clip-rule="evenodd" d="M40 21H45V3H40V21Z" fill="white"/>
<path fill-rule="evenodd" clip-rule="evenodd" d="M62 14.6409C62 16.658 61.3471 18.229 60.0293 19.3619C58.7401 20.4561 56.9923 21 54.7825 21C52.3656 21 50.1045 20.3337 48 19.0006L49.9432 14.7139C51.4946 15.9187 52.9181 16.5238 54.2186 16.5238C54.8721 16.5238 55.3853 16.4014 55.7479 16.1517C56.0717 15.9295 56.2282 15.6519 56.2282 15.319C56.2282 14.8412 55.9767 14.4363 55.4749 14.1024C54.9725 13.7631 54.0173 13.3582 52.6165 12.8863C51.3387 12.4584 50.3949 11.8919 49.7862 11.1864C49.0884 10.3757 48.7371 9.29923 48.7371 7.95428C48.7371 6.11592 49.3733 4.655 50.6517 3.57206C51.8907 2.52187 53.515 2 55.5137 2C57.5173 2 59.4487 2.52187 61.3131 3.57206L59.583 7.83723C58.4379 6.9159 57.2718 6.45417 56.0884 6.45417C55.6146 6.45417 55.2229 6.54866 54.9223 6.73765C54.6147 6.93201 54.4642 7.17684 54.4642 7.4759C54.4642 7.82113 54.6541 8.10944 55.0281 8.34837C55.4409 8.61521 56.3733 9.03185 57.8357 9.60311C59.2981 10.1701 60.359 10.8589 61.0179 11.6595C61.6762 12.4584 62 13.4581 62 14.6409Z" fill="white"/>
<path fill-rule="evenodd" clip-rule="evenodd" d="M45 29.8287C45 30.4295 44.7558 30.9387 44.2725 31.3605C43.784 31.7828 43.1935 32 42.4965 32C41.4844 32 40.6498 31.5667 40 30.7116L41.0127 29.9585C41.4245 30.5708 41.9251 30.8743 42.4965 30.8743C42.8191 30.8743 43.0812 30.7869 43.2892 30.6085C43.4983 30.4295 43.6054 30.2024 43.6054 29.9271C43.6054 29.6722 43.5104 29.4718 43.3197 29.3305C43.1342 29.1897 42.6815 28.9794 41.9729 28.6978C41.4366 28.4812 41.049 28.2587 40.8105 28.0316C40.4891 27.7229 40.3341 27.3387 40.3341 26.8683C40.3341 26.3533 40.5541 25.9095 41.0012 25.5411C41.4366 25.179 41.9366 25 42.4965 25C43.3197 25 43.9574 25.3517 44.4159 26.0665L43.5104 26.7217C43.2126 26.3209 42.8727 26.1204 42.4965 26.1204C42.2707 26.1204 42.0622 26.1916 41.8894 26.3266C41.7166 26.4674 41.6273 26.6186 41.6273 26.7971C41.6273 26.9865 41.7103 27.1493 41.8652 27.2796C42.0559 27.4303 42.4315 27.6093 42.9856 27.8207C43.6884 28.0861 44.1953 28.3671 44.5052 28.6648C44.8324 28.9794 45 29.3687 45 29.8287Z" fill="white"/>
<path fill-rule="evenodd" clip-rule="evenodd" d="M52 25H50.6564V28.7814C50.6564 30.1225 50.0992 30.7981 48.9975 30.7981C47.8892 30.7981 47.3375 30.1165 47.3375 28.7646V25H46V28.837C46 29.8146 46.2647 30.5918 46.7981 31.1616C47.332 31.7309 48.0673 32.0166 48.9975 32.0166C49.6346 32.0166 50.1658 31.8849 50.6103 31.6499V32.4406C50.6103 34.0388 50.2085 34.8431 48.922 34.8431C48.2394 34.8431 47.9636 34.6702 47.5789 34.324L46.6199 35.1396C47.2521 35.7154 47.8032 36 48.7849 36C49.9671 36 50.5931 35.6867 51.1387 35.0667C51.6837 34.4466 51.9595 33.4804 51.9595 32.1733V29.6472L51.9462 29.6736C51.9806 29.4549 52 29.2242 52 28.9769V25Z" fill="white"/>
<path fill-rule="evenodd" clip-rule="evenodd" d="M58 29.8287C58 30.4295 57.756 30.9387 57.2675 31.3605C56.786 31.7828 56.1968 32 55.5006 32C54.4822 32 53.649 31.5667 53 30.7116L54.0127 29.9585C54.4287 30.5708 54.9229 30.8743 55.5006 30.8743C55.8216 30.8743 56.0834 30.7869 56.2917 30.6085C56.5006 30.4295 56.6076 30.2024 56.6076 29.9271C56.6076 29.6722 56.5121 29.4718 56.3216 29.3305C56.1369 29.1897 55.6841 28.9794 54.9764 28.6978C54.4402 28.4812 54.0541 28.2587 53.8165 28.0316C53.4942 27.7229 53.3337 27.3387 53.3337 26.8683C53.3337 26.3533 53.5598 25.9095 54.0063 25.5411C54.4344 25.179 54.9344 25 55.5006 25C56.3153 25 56.9528 25.3517 57.4108 26.0665L56.5121 26.7217C56.2146 26.3209 55.8751 26.1204 55.5006 26.1204C55.2681 26.1204 55.0662 26.1916 54.893 26.3266C54.7204 26.4674 54.6312 26.6186 54.6312 26.7971C54.6312 26.9865 54.7089 27.1493 54.8694 27.2796C55.0598 27.4303 55.4344 27.6093 55.9885 27.8207C56.691 28.0861 57.1968 28.3671 57.5058 28.6648C57.8337 28.9794 58 29.3687 58 29.8287Z" fill="white"/>
<path fill-rule="evenodd" clip-rule="evenodd" d="M61 26.3756H59.977V32H58.7497V26.3756H58V25.1439H58.7497V22H59.977V25.1439H61V26.3756Z" fill="white"/>
<path fill-rule="evenodd" clip-rule="evenodd" d="M67.65 27.7506C67.5621 27.2519 67.3392 26.851 66.9688 26.5548C66.6058 26.2455 66.1424 26.0938 65.5905 26.0938C65.0562 26.0938 64.5933 26.2455 64.1883 26.5428C63.7777 26.8458 63.5196 27.2466 63.4022 27.7506H67.65ZM69 30.2024C68.6948 30.7278 68.2309 31.1606 67.6268 31.496C67.0221 31.8325 66.371 32 65.6903 32C64.5814 32 63.6954 31.675 63.0147 31.0308C62.3341 30.3866 62 29.5367 62 28.4921C62 27.5172 62.3165 26.6998 62.9501 26.0341C63.6251 25.3464 64.4872 25 65.5434 25C66.6228 25 67.4804 25.3365 68.1083 26.0069C68.7005 26.6511 69 27.4738 69 28.4812V28.6978H63.4022C63.4022 29.3415 63.6075 29.8716 64.0238 30.2777C64.4407 30.6838 64.9745 30.89 65.6376 30.89C66.629 30.89 67.3806 30.4729 67.8905 29.645L69 30.2024Z" fill="white"/>
<path fill-rule="evenodd" clip-rule="evenodd" d="M79 32H77.7425V27.9741C77.7425 26.7642 77.3588 26.1595 76.5861 26.1595C75.6109 26.1595 75.1256 26.899 75.1256 28.3714V32H73.8898V27.9741C73.8898 26.7642 73.4844 26.1595 72.6849 26.1595C71.7267 26.1595 71.2415 26.9548 71.2415 28.5392V32H70V25.2084H71.2415V26.1487C71.6891 25.3643 72.2965 24.9838 73.064 25.0005C73.4844 25.0065 73.8635 25.1348 74.2041 25.3757C74.5023 25.5998 74.7207 25.8742 74.8593 26.2045C75.2967 25.4092 75.9519 25.0065 76.8261 25.0005C78.2752 24.9838 79 25.9138 79 27.7895V32Z" fill="white"/>
<path fill-rule="evenodd" clip-rule="evenodd" d="M70.4671 10.8732C69.3951 10.8732 68.5313 9.96576 68.5313 8.85217C68.5313 7.73857 69.3951 6.8365 70.4671 6.8365C71.5334 6.8365 72.3967 7.73857 72.3967 8.85217C72.3967 9.96576 71.5334 10.8732 70.4671 10.8732ZM76.3575 4.72664C75.1746 3.57967 73.4419 3 71.1546 3H64V21H69.326V14.9374H71.5917C73.6604 14.9374 75.2437 14.4309 76.3472 13.4174C77.446 12.4039 78 10.9679 78 9.11375C78 7.24878 77.4511 5.78372 76.3575 4.72664Z" fill="white"/>
<path fill-rule="evenodd" clip-rule="evenodd" d="M31.0115 7.36995C30.8757 7.17128 30.7331 6.97943 30.59 6.78915C31.3883 6.03693 31.5451 4.79669 30.903 3.86205C30.1932 2.83149 28.7774 2.57096 27.7474 3.28177C27.6247 3.36512 27.5157 3.45895 27.4156 3.56064C21.7245 -0.849396 13.6149 -1.30335 7.36459 2.98822C-0.30628 8.26108 -2.29398 18.7297 2.86921 26.4459C2.06669 27.2002 1.90576 28.4457 2.55051 29.3798C2.98925 30.0256 3.71 30.3715 4.43704 30.3668C4.87578 30.3611 5.31556 30.2316 5.70608 29.9648C5.75955 29.9281 5.80253 29.8814 5.85233 29.8405C11.5607 34.7994 20.1127 35.4913 26.6304 31.0121C34.3631 25.6926 36.3256 15.1023 31.0115 7.36995Z" fill="white"/>
<path fill-rule="evenodd" clip-rule="evenodd" d="M3.65142 26.7616C2.96911 27.2335 2.79506 28.167 3.26167 28.8491C3.55919 29.2744 4.03125 29.5 4.51324 29.5C4.80084 29.495 5.0934 29.4128 5.34976 29.2338C6.03208 28.7668 6.20612 27.8284 5.73456 27.1512C5.26745 26.4691 4.33373 26.2951 3.65142 26.7616Z" fill="#01579B"/>
<path fill-rule="evenodd" clip-rule="evenodd" d="M19.1679 16.8792C16.893 18.4423 16.3162 21.5572 17.8788 23.8315C19.4425 26.1069 22.5574 26.6843 24.8317 25.1206C27.1071 23.5575 27.684 20.4431 26.1208 18.1677C24.5571 15.8929 21.4422 15.3161 19.1679 16.8792Z" fill="#01579B"/>
<path fill-rule="evenodd" clip-rule="evenodd" d="M29.0153 6.69911C29.3025 6.69415 29.5952 6.61281 29.8522 6.43278C30.5339 5.96609 30.7035 5.03221 30.2367 4.34978C29.7699 3.66736 28.8307 3.49278 28.1531 3.96493C27.4655 4.43211 27.2963 5.36549 27.7631 6.04792C28.0558 6.47394 28.5331 6.70506 29.0153 6.69911Z" fill="#01579B"/>
<path fill-rule="evenodd" clip-rule="evenodd" d="M10.5148 24.6157C8.92519 25.7059 8.52127 27.8901 9.61578 29.4853C10.7114 31.0744 12.8901 31.4795 14.4852 30.3833C16.0743 29.2887 16.4793 27.11 15.3837 25.5143C14.2941 23.9246 12.1094 23.5217 10.5148 24.6157Z" fill="#01579B"/>
<path fill-rule="evenodd" clip-rule="evenodd" d="M26.5185 9.61567C24.9251 10.7099 24.5209 12.893 25.6157 14.4814C26.7095 16.0748 28.8927 16.4789 30.4812 15.3847C32.0752 14.291 32.4788 12.1074 31.3845 10.519C30.2902 8.92506 28.1071 8.52089 26.5185 9.61567Z" fill="#01579B"/>
<path fill-rule="evenodd" clip-rule="evenodd" d="M102.444 4.22382H104.625V13.9182H102.444V9.80544H98.7817V13.9182H96.6011V4.22382H98.7817V7.93091H102.444V4.22382ZM108.692 9.06402C108.692 9.53965 108.751 9.96864 108.867 10.351C108.984 10.7334 109.151 11.0621 109.37 11.3372C109.589 11.6124 109.857 11.8245 110.174 11.9737C110.491 12.123 110.854 12.1976 111.264 12.1976C111.665 12.1976 112.026 12.123 112.348 11.9737C112.669 11.8245 112.939 11.6124 113.158 11.3372C113.377 11.0621 113.545 10.7334 113.662 10.351C113.778 9.96864 113.836 9.53965 113.836 9.06402C113.836 8.58839 113.778 8.15707 113.662 7.77004C113.545 7.38301 113.377 7.05194 113.158 6.77682C112.939 6.5017 112.669 6.28954 112.348 6.14032C112.026 5.9911 111.665 5.91649 111.264 5.91649C110.854 5.91649 110.491 5.99343 110.174 6.14731C109.857 6.30119 109.589 6.51569 109.37 6.79081C109.151 7.06593 108.984 7.397 108.867 7.78403C108.751 8.17106 108.692 8.59772 108.692 9.06402ZM116.087 9.06402C116.087 9.89404 115.963 10.6238 115.716 11.2533C115.469 11.8828 115.132 12.4097 114.703 12.8341C114.274 13.2584 113.764 13.5778 113.172 13.7923C112.581 14.0068 111.945 14.1141 111.264 14.1141C110.603 14.1141 109.978 14.0068 109.391 13.7923C108.804 13.5778 108.292 13.2584 107.854 12.8341C107.416 12.4097 107.071 11.8828 106.819 11.2533C106.568 10.6238 106.442 9.89404 106.442 9.06402C106.442 8.234 106.572 7.50425 106.833 6.87474C107.094 6.24523 107.446 5.71599 107.889 5.28699C108.331 4.85799 108.844 4.53625 109.426 4.32175C110.009 4.10725 110.621 4 111.264 4C111.926 4 112.55 4.10725 113.137 4.32175C113.724 4.53625 114.237 4.85799 114.675 5.28699C115.113 5.71599 115.458 6.24523 115.709 6.87474C115.961 7.50425 116.087 8.234 116.087 9.06402ZM120.546 12.2535C120.853 12.2535 121.107 12.2279 121.308 12.1766C121.508 12.1253 121.669 12.0553 121.79 11.9667C121.911 11.8781 121.995 11.7732 122.042 11.652C122.088 11.5307 122.111 11.3955 122.111 11.2463C122.111 10.9292 121.962 10.6658 121.664 10.4559C121.366 10.2461 120.853 10.0199 120.127 9.77746C119.81 9.66555 119.493 9.53732 119.176 9.39276C118.859 9.24821 118.575 9.06635 118.323 8.84719C118.072 8.62803 117.867 8.36224 117.708 8.04982C117.55 7.7374 117.471 7.35736 117.471 6.90971C117.471 6.46206 117.555 6.05872 117.722 5.69966C117.89 5.34061 118.128 5.03519 118.435 4.78338C118.743 4.53158 119.115 4.33807 119.553 4.20284C119.991 4.06761 120.485 4 121.035 4C121.687 4 122.251 4.06994 122.727 4.20984C123.202 4.34973 123.593 4.5036 123.901 4.67147L123.272 6.39212C123.001 6.25223 122.701 6.12866 122.37 6.02141C122.039 5.91416 121.641 5.86054 121.175 5.86054C120.653 5.86054 120.278 5.93281 120.05 6.07737C119.821 6.22192 119.707 6.44341 119.707 6.74185C119.707 6.91904 119.749 7.06826 119.833 7.18949C119.917 7.31073 120.036 7.42031 120.189 7.51824C120.343 7.61616 120.52 7.70476 120.721 7.78403C120.921 7.8633 121.142 7.9449 121.385 8.02883C121.888 8.21536 122.326 8.39954 122.699 8.5814C123.071 8.76326 123.381 8.97542 123.628 9.2179C123.875 9.46038 124.059 9.74482 124.18 10.0712C124.301 10.3976 124.362 10.794 124.362 11.2603C124.362 12.1649 124.045 12.8667 123.411 13.3656C122.778 13.8646 121.823 14.1141 120.546 14.1141C120.117 14.1141 119.73 14.0884 119.386 14.0371C119.041 13.9858 118.736 13.9229 118.47 13.8483C118.205 13.7737 117.976 13.6944 117.785 13.6104C117.594 13.5265 117.433 13.4472 117.303 13.3726L117.918 11.638C118.207 11.7965 118.563 11.9388 118.987 12.0647C119.411 12.1906 119.931 12.2535 120.546 12.2535ZM132.945 4.22382V6.08436H130.023V13.9182H127.843V6.08436H124.921V4.22382H132.945ZM134.342 4.22382H136.523V13.9182H134.342V4.22382ZM145.26 13.9182C144.635 12.8084 143.96 11.7126 143.233 10.6308C142.506 9.54897 141.732 8.52778 140.912 7.5672V13.9182H138.76V4.22382H140.535C140.842 4.53158 141.183 4.90928 141.555 5.35693C141.928 5.80458 142.308 6.28254 142.695 6.79081C143.081 7.29908 143.466 7.82599 143.848 8.37156C144.23 8.91714 144.589 9.44172 144.924 9.94533V4.22382H147.091V13.9182H145.26ZM154.052 5.90251C153.036 5.90251 152.302 6.18461 151.85 6.74884C151.398 7.31307 151.172 8.08479 151.172 9.06402C151.172 9.53965 151.228 9.97097 151.34 10.358C151.452 10.745 151.62 11.0784 151.843 11.3582C152.067 11.638 152.347 11.8548 152.682 12.0087C153.017 12.1626 153.409 12.2395 153.856 12.2395C154.098 12.2395 154.306 12.2349 154.478 12.2255C154.651 12.2162 154.802 12.1976 154.932 12.1696V8.79823H157.113V13.5965C156.852 13.699 156.433 13.8086 155.855 13.9252C155.277 14.0418 154.564 14.1001 153.716 14.1001C152.99 14.1001 152.33 13.9882 151.738 13.7643C151.147 13.5405 150.641 13.2141 150.222 12.7851C149.802 12.3561 149.479 11.8292 149.25 11.2043C149.022 10.5795 148.908 9.86606 148.908 9.06402C148.908 8.25265 149.034 7.53456 149.285 6.90971C149.537 6.28487 149.882 5.75562 150.32 5.32196C150.758 4.8883 151.273 4.55956 151.864 4.33574C152.456 4.11191 153.087 4 153.758 4C154.215 4 154.627 4.03031 154.995 4.09093C155.364 4.15155 155.68 4.22149 155.946 4.30076C156.212 4.38004 156.431 4.46164 156.603 4.54557C156.775 4.62951 156.899 4.69479 156.973 4.74142L156.344 6.49004C156.046 6.3315 155.704 6.19394 155.317 6.07737C154.93 5.96079 154.508 5.90251 154.052 5.90251ZM99.243 30.1395C99.5505 30.1395 99.8044 30.1138 100.005 30.0625C100.205 30.0112 100.366 29.9413 100.487 29.8527C100.608 29.7641 100.692 29.6592 100.739 29.5379C100.785 29.4167 100.809 29.2815 100.809 29.1323C100.809 28.8152 100.659 28.5517 100.361 28.3419C100.063 28.132 99.5505 27.9059 98.8236 27.6634C98.5068 27.5515 98.1899 27.4233 97.8731 27.2787C97.5562 27.1342 97.272 26.9523 97.0204 26.7331C96.7688 26.514 96.5638 26.2482 96.4054 25.9358C96.247 25.6233 96.1677 25.2433 96.1677 24.7957C96.1677 24.348 96.2516 23.9447 96.4193 23.5856C96.5871 23.2266 96.8247 22.9211 97.1322 22.6693C97.4398 22.4175 97.8125 22.224 98.2505 22.0888C98.6885 21.9536 99.1824 21.8859 99.7322 21.8859C100.385 21.8859 100.948 21.9559 101.424 22.0958C101.899 22.2357 102.29 22.3895 102.598 22.5574L101.969 24.2781C101.698 24.1382 101.398 24.0146 101.067 23.9074C100.736 23.8001 100.338 23.7465 99.872 23.7465C99.3501 23.7465 98.975 23.8188 98.7467 23.9633C98.5184 24.1079 98.4043 24.3294 98.4043 24.6278C98.4043 24.805 98.4462 24.9542 98.5301 25.0754C98.6139 25.1967 98.7328 25.3063 98.8865 25.4042C99.0403 25.5021 99.2173 25.5907 99.4177 25.67C99.6181 25.7492 99.8394 25.8308 100.082 25.9148C100.585 26.1013 101.023 26.2855 101.396 26.4673C101.768 26.6492 102.078 26.8614 102.325 27.1038C102.572 27.3463 102.756 27.6308 102.877 27.9572C102.998 28.2836 103.059 28.6799 103.059 29.1462C103.059 30.0509 102.742 30.7526 102.109 31.2516C101.475 31.7505 100.52 32 99.243 32C98.8143 32 98.4276 31.9744 98.0828 31.9231C97.738 31.8718 97.4328 31.8088 97.1672 31.7342C96.9016 31.6596 96.6733 31.5803 96.4823 31.4964C96.2912 31.4125 96.1305 31.3332 96 31.2586L96.615 29.5239C96.9039 29.6825 97.2604 29.8247 97.6844 29.9506C98.1084 30.0765 98.6279 30.1395 99.243 30.1395ZM106.568 26.95C106.568 27.4256 106.626 27.8546 106.742 28.237C106.859 28.6193 107.027 28.9481 107.246 29.2232C107.465 29.4983 107.732 29.7105 108.049 29.8597C108.366 30.0089 108.73 30.0835 109.14 30.0835C109.54 30.0835 109.901 30.0089 110.223 29.8597C110.544 29.7105 110.815 29.4983 111.034 29.2232C111.253 28.9481 111.42 28.6193 111.537 28.237C111.653 27.8546 111.712 27.4256 111.712 26.95C111.712 26.4743 111.653 26.043 111.537 25.656C111.42 25.269 111.253 24.9379 111.034 24.6628C110.815 24.3876 110.544 24.1755 110.223 24.0263C109.901 23.877 109.54 23.8024 109.14 23.8024C108.73 23.8024 108.366 23.8794 108.049 24.0333C107.732 24.1871 107.465 24.4016 107.246 24.6768C107.027 24.9519 106.859 25.2829 106.742 25.67C106.626 26.057 106.568 26.4837 106.568 26.95ZM113.962 26.95C113.962 27.78 113.839 28.5097 113.592 29.1392C113.345 29.7688 113.007 30.2957 112.578 30.72C112.15 31.1443 111.639 31.4638 111.048 31.6783C110.456 31.8928 109.82 32 109.14 32C108.478 32 107.854 31.8928 107.267 31.6783C106.679 31.4638 106.167 31.1443 105.729 30.72C105.291 30.2957 104.946 29.7688 104.695 29.1392C104.443 28.5097 104.317 27.78 104.317 26.95C104.317 26.1199 104.448 25.3902 104.708 24.7607C104.969 24.1312 105.321 23.6019 105.764 23.1729C106.206 22.7439 106.719 22.4222 107.301 22.2077C107.884 21.9932 108.497 21.8859 109.14 21.8859C109.801 21.8859 110.426 21.9932 111.013 22.2077C111.6 22.4222 112.112 22.7439 112.55 23.1729C112.988 23.6019 113.333 24.1312 113.585 24.7607C113.836 25.3902 113.962 26.1199 113.962 26.95ZM115.779 31.8042V22.1098H122.265V23.9423H117.96V25.9707H121.79V27.8033H117.96V31.8042H115.779ZM131.281 22.1098V23.9703H128.36V31.8042H126.179V23.9703H123.258V22.1098H131.281ZM139.542 23.145C139.654 23.5273 139.778 23.9586 139.913 24.4389C140.048 24.9192 140.192 25.4158 140.346 25.9288C140.5 26.4417 140.656 26.9546 140.814 27.4676C140.973 27.9805 141.127 28.4561 141.276 28.8944C141.397 28.4188 141.52 27.9012 141.646 27.3417C141.772 26.7821 141.891 26.2039 142.003 25.607C142.114 25.0102 142.224 24.4156 142.331 23.8234C142.438 23.2312 142.538 22.66 142.632 22.1098H144.896C144.57 23.7325 144.195 25.3785 143.771 27.0479C143.347 28.7173 142.888 30.3027 142.394 31.8042H140.395C140.069 30.9089 139.752 29.9693 139.445 28.9854C139.137 28.0015 138.834 27.0153 138.536 26.0267C138.238 27.0153 137.94 28.0015 137.641 28.9854C137.343 29.9693 137.031 30.9089 136.705 31.8042H134.706C134.212 30.3027 133.753 28.7173 133.329 27.0479C132.905 25.3785 132.53 23.7325 132.204 22.1098H134.566C134.659 22.66 134.762 23.2312 134.874 23.8234C134.985 24.4156 135.102 25.0102 135.223 25.607C135.344 26.2039 135.468 26.7821 135.594 27.3417C135.719 27.9012 135.847 28.4188 135.978 28.8944C136.146 28.4375 136.309 27.9525 136.467 27.4396C136.626 26.9266 136.779 26.4137 136.928 25.9008C137.078 25.3879 137.215 24.8936 137.341 24.418C137.467 23.9423 137.581 23.518 137.683 23.145H139.542ZM152.221 31.8042C152.118 31.4684 152.004 31.1234 151.878 30.769C151.752 30.4146 151.629 30.0602 151.508 29.7058H147.734C147.613 30.0602 147.489 30.4146 147.363 30.769C147.237 31.1234 147.123 31.4684 147.021 31.8042H144.756C145.12 30.7596 145.465 29.7944 145.791 28.9084C146.117 28.0225 146.436 27.1878 146.748 26.4044C147.06 25.621 147.368 24.8773 147.671 24.1731C147.974 23.469 148.288 22.7812 148.614 22.1098H150.697C151.014 22.7812 151.326 23.469 151.634 24.1731C151.941 24.8773 152.251 25.621 152.563 26.4044C152.875 27.1878 153.195 28.0225 153.521 28.9084C153.847 29.7944 154.192 30.7596 154.555 31.8042H152.221ZM149.607 24.306C149.56 24.4459 149.49 24.6371 149.397 24.8796C149.304 25.1221 149.197 25.4018 149.076 25.7189C148.954 26.036 148.822 26.3857 148.677 26.7681C148.533 27.1505 148.386 27.5515 148.237 27.9712H150.991C150.842 27.5515 150.697 27.1505 150.557 26.7681C150.418 26.3857 150.285 26.036 150.159 25.7189C150.033 25.4018 149.924 25.1221 149.83 24.8796C149.737 24.6371 149.663 24.4459 149.607 24.306ZM158.651 21.9979C160.104 21.9979 161.218 22.2567 161.992 22.7742C162.765 23.2918 163.152 24.0962 163.152 25.1874C163.152 25.8682 162.996 26.4207 162.683 26.8451C162.371 27.2694 161.922 27.6028 161.335 27.8453C161.53 28.0877 161.735 28.3652 161.95 28.6776C162.164 28.99 162.376 29.3164 162.586 29.6568C162.795 29.9972 162.998 30.3516 163.194 30.72C163.389 31.0884 163.571 31.4498 163.739 31.8042H161.293C161.116 31.4871 160.936 31.1653 160.754 30.8389C160.573 30.5125 160.386 30.1954 160.195 29.8877C160.004 29.5799 159.816 29.2885 159.629 29.0133C159.443 28.7382 159.256 28.4888 159.07 28.2649H157.994V31.8042H155.813V22.2497C156.288 22.1564 156.78 22.0911 157.288 22.0538C157.796 22.0165 158.25 21.9979 158.651 21.9979ZM158.777 23.8584C158.618 23.8584 158.476 23.8631 158.35 23.8724C158.224 23.8817 158.106 23.891 157.994 23.9004V26.5303H158.609C159.429 26.5303 160.016 26.4277 160.37 26.2225C160.724 26.0174 160.901 25.6676 160.901 25.1734C160.901 24.6977 160.722 24.3597 160.363 24.1592C160.004 23.9587 159.475 23.8584 158.777 23.8584ZM165.137 31.8042V22.1098H171.678V23.9423H167.317V25.8448H171.189V27.6354H167.317V29.9716H172V31.8042H165.137Z" fill="white"/>
</g>
<defs>
<clipPath id="clip0">
<rect width="172" height="36" fill="white"/>
</clipPath>
</defs>
</svg>
