<svg width="483" height="95" viewBox="0 0 483 95" fill="none" xmlns="http://www.w3.org/2000/svg">
<path d="M86.1935 52.9749C85.5002 44.1373 79.0298 40.2999 66.3201 37.9742C57.3078 36.3462 54.9969 33.7879 54.9969 30.7645C54.9969 28.6714 56.3835 24.834 63.7782 24.834C68.1688 24.834 72.675 27.276 73.9459 31.1134L83.8347 25.1596C82.6857 23.2293 78.1055 14.0195 63.7782 14.0195C48.411 14.0195 42.5183 25.1829 44.0204 34.0205C45.4069 42.5093 51.9928 45.8816 62.7383 48.091C71.404 49.8353 74.7547 51.4632 75.1014 54.1378C75.5635 57.2775 72.675 60.8823 65.2802 60.8823C57.77 60.8823 54.3302 57.6263 53.0593 54.1378L44.0207 59.5195C46.6834 66.0826 53.0327 71.9294 65.7424 71.9294C78.4521 71.9294 87.1178 63.9057 86.1935 52.9749Z" fill="white"/>
<path d="M199.826 53.0307C199.127 44.193 192.605 40.3556 179.793 38.0299C170.709 36.402 168.38 33.8437 168.38 30.8203C168.38 28.7272 169.777 24.8898 177.231 24.8898C181.657 24.8898 186.199 27.3317 187.48 31.1691L197.448 24.8293C196.289 22.899 191.673 14.0753 177.231 14.0753C161.741 14.0753 155.801 25.2386 157.315 34.0763C158.713 42.565 165.351 45.9373 176.183 48.1467C184.918 49.891 188.295 51.519 188.645 54.1935C189.111 57.3332 186.199 60.938 178.745 60.938C171.175 60.938 167.457 57.6588 166.176 54.1703L157.315 59.5752C160 66.1383 166.4 71.9851 179.211 71.9851C192.022 71.9851 200.757 63.9614 199.826 53.0307Z" fill="white"/>
<path d="M253.781 14.8893H241.902L228.392 53.6121L214.765 14.8893H202.886L221.872 67.5837C222.248 68.6277 222.265 69.7737 221.92 70.8286C218.591 81.0293 217.57 83.1252 210.96 83.1252L206.147 93.9629C222.335 97.3352 228.159 85.4741 234.448 68.8454L253.781 14.8893Z" fill="white"/>
<path d="M331.412 59.9613C329.482 61.1195 328.911 61.4032 326.581 60.4729C324.136 59.5426 323.087 57.4495 323.087 52.4493V24.8898H334.618V14.8893H323.087V0.121094L312.023 6.68421V14.8893H304.453V24.8898H312.023V52.9144C312.023 63.1475 315.168 68.8454 322.156 71.0548C327.862 72.7991 335.659 71.5432 340.678 66.1383L331.412 59.9613Z" fill="white"/>
<path d="M393.053 47.7234C393.402 45.8629 393.519 44.0023 393.519 42.1418C393.519 26.327 384.784 14.0753 368.478 14.0753C352.173 14.0753 341.458 27.0992 341.458 42.9139C341.458 58.7286 352.522 71.7525 368.828 71.7525C379.193 71.7525 386.71 67.4826 391.253 59.5752L381.639 53.7284C379.077 57.9146 374.768 60.7055 368.828 60.7055C360.675 60.7055 355.551 54.7005 353.92 47.7234H393.053ZM368.478 25.1223C376.864 25.1223 380.94 30.704 382.105 38.0299H353.687C355.201 30.704 360.093 25.1223 368.478 25.1223Z" fill="white"/>
<path d="M461.516 14.0753C454.062 14.0753 448.239 17.4475 444.396 23.2618C440.785 17.215 434.845 14.0753 427.042 14.0753C421.568 14.0753 417.259 16.0521 413.881 19.3081V12.5729L402.817 19.0383V70.9385H413.881V39.6579C413.881 29.1923 418.424 25.1223 425.295 25.1223C431.817 25.1223 437.058 29.4249 437.058 40.3556V70.9385H448.123V39.6579C448.123 29.1923 453.014 25.1223 459.886 25.1223C466.291 25.1223 471.183 29.4249 471.183 40.3556V70.9385H482.364V39.3091C482.364 23.1455 474.793 14.0753 461.516 14.0753Z" fill="white"/>
<path d="M299.64 52.9749C298.942 44.1373 292.42 40.2999 279.608 37.9742C270.524 36.3462 268.194 33.7879 268.194 30.7645C268.194 28.6714 269.592 24.834 277.046 24.834C281.472 24.834 286.014 27.276 287.295 31.1134L297.263 25.1596C296.105 23.2293 291.488 14.0195 277.046 14.0195C261.556 14.0195 255.616 25.1829 257.13 34.0205C258.528 42.5093 265.166 45.8816 275.998 48.091C284.733 49.8352 288.11 51.4632 288.46 54.1378C288.926 57.2775 286.014 60.8823 278.56 60.8823C270.99 60.8823 267.263 57.3938 265.982 53.9052L257.13 59.5194C259.814 66.0826 266.215 71.9294 279.026 71.9294C291.837 71.9294 300.572 63.9057 299.64 52.9749Z" fill="white"/>
<path d="M21.4019 70.7973H32.3764V68.0326V18.0308V12.4751L21.4019 19.0382V70.7973Z" fill="white"/>
<path d="M124.895 14.6877C117.732 14.6877 111.956 17.2121 107.913 21.4576V15.4909H96.8228V92.7229L108.375 85.5934L107.913 64.8306C111.956 69.0761 117.732 71.6005 124.895 71.6005C141.068 71.6005 150.772 58.7492 150.772 43.1441C150.772 27.539 141.068 14.6877 124.895 14.6877ZM123.624 60.6999C113.458 60.6999 108.375 52.6678 108.375 43.1441C108.375 33.6204 113.573 25.5883 123.624 25.5883C133.559 25.5883 138.757 33.6204 138.757 43.1441C138.757 52.6678 133.674 60.6999 123.624 60.6999Z" fill="white"/>
<circle cx="8.27551" cy="18.6525" r="7.72131" fill="#F7D20F"/>
</svg>
